<svg width="25" height="24" viewBox="0 0 25 24" fill="none" xmlns="http://www.w3.org/2000/svg">
<g id="paid_FILL0_wght400_GRAD0_opsz24 ">
<path id="Vector" d="M12.625 22C11.2417 22 9.94167 21.7375 8.725 21.2125C7.50833 20.6875 6.45 19.975 5.55 19.075C4.65 18.175 3.9375 17.1167 3.4125 15.9C2.8875 14.6833 2.625 13.3833 2.625 12C2.625 10.6167 2.8875 9.31667 3.4125 8.1C3.9375 6.88333 4.65 5.825 5.55 4.925C6.45 4.025 7.50833 3.3125 8.725 2.7875C9.94167 2.2625 11.2417 2 12.625 2C14.0083 2 15.3083 2.2625 16.525 2.7875C17.7417 3.3125 18.8 4.025 19.7 4.925C20.6 5.825 21.3125 6.88333 21.8375 8.1C22.3625 9.31667 22.625 10.6167 22.625 12C22.625 13.3833 22.3625 14.6833 21.8375 15.9C21.3125 17.1167 20.6 18.175 19.7 19.075C18.8 19.975 17.7417 20.6875 16.525 21.2125C15.3083 21.7375 14.0083 22 12.625 22ZM12.625 20C14.8583 20 16.75 19.225 18.3 17.675C19.85 16.125 20.625 14.2333 20.625 12C20.625 9.76667 19.85 7.875 18.3 6.325C16.75 4.775 14.8583 4 12.625 4C10.3917 4 8.5 4.775 6.95 6.325C5.4 7.875 4.625 9.76667 4.625 12C4.625 14.2333 5.4 16.125 6.95 17.675C8.5 19.225 10.3917 20 12.625 20ZM12.6 19C12.8333 19 13.0375 18.9125 13.2125 18.7375C13.3875 18.5625 13.475 18.3583 13.475 18.125V17.75C14.3083 17.6 15.025 17.275 15.625 16.775C16.225 16.275 16.525 15.5333 16.525 14.55C16.525 13.85 16.325 13.2083 15.925 12.625C15.525 12.0417 14.725 11.5333 13.525 11.1C12.525 10.7667 11.8333 10.475 11.45 10.225C11.0667 9.975 10.875 9.63333 10.875 9.2C10.875 8.76667 11.0292 8.425 11.3375 8.175C11.6458 7.925 12.0917 7.8 12.675 7.8C13.0083 7.8 13.3 7.85833 13.55 7.975C13.8 8.09167 14.0083 8.25 14.175 8.45C14.3417 8.65 14.5292 8.7875 14.7375 8.8625C14.9458 8.9375 15.1417 8.93333 15.325 8.85C15.575 8.75 15.7458 8.57917 15.8375 8.3375C15.9292 8.09583 15.9083 7.875 15.775 7.675C15.5083 7.29167 15.1792 6.96667 14.7875 6.7C14.3958 6.43333 13.975 6.28333 13.525 6.25V5.875C13.525 5.64167 13.4375 5.4375 13.2625 5.2625C13.0875 5.0875 12.8833 5 12.65 5C12.4167 5 12.2125 5.0875 12.0375 5.2625C11.8625 5.4375 11.775 5.64167 11.775 5.875V6.25C10.9417 6.43333 10.2917 6.8 9.825 7.35C9.35833 7.9 9.125 8.51667 9.125 9.2C9.125 9.98333 9.35417 10.6167 9.8125 11.1C10.2708 11.5833 10.9917 12 11.975 12.35C13.025 12.7333 13.7542 13.075 14.1625 13.375C14.5708 13.675 14.775 14.0667 14.775 14.55C14.775 15.1 14.5792 15.5042 14.1875 15.7625C13.7958 16.0208 13.325 16.15 12.775 16.15C12.3417 16.15 11.95 16.0458 11.6 15.8375C11.25 15.6292 10.9583 15.3167 10.725 14.9C10.5917 14.6667 10.4167 14.5083 10.2 14.425C9.98333 14.3417 9.76667 14.3417 9.55 14.425C9.31667 14.5083 9.14583 14.6667 9.0375 14.9C8.92917 15.1333 8.925 15.3583 9.025 15.575C9.29167 16.1417 9.65 16.6042 10.1 16.9625C10.55 17.3208 11.0917 17.5667 11.725 17.7V18.125C11.725 18.3583 11.8125 18.5625 11.9875 18.7375C12.1625 18.9125 12.3667 19 12.6 19Z" fill="#3F484A"/>
</g>
</svg>
