<svg width="25" height="24" viewBox="0 0 25 24" fill="none" xmlns="http://www.w3.org/2000/svg">
<g id="home_FILL1_wght400_GRAD0_opsz24 1">
<path id="Vector" d="M4.875 19V10C4.875 9.68333 4.94583 9.38333 5.0875 9.1C5.22917 8.81667 5.425 8.58333 5.675 8.4L11.675 3.9C12.025 3.63333 12.425 3.5 12.875 3.5C13.325 3.5 13.725 3.63333 14.075 3.9L20.075 8.4C20.325 8.58333 20.5208 8.81667 20.6625 9.1C20.8042 9.38333 20.875 9.68333 20.875 10V19C20.875 19.55 20.6792 20.0208 20.2875 20.4125C19.8958 20.8042 19.425 21 18.875 21H15.875C15.5917 21 15.3542 20.9042 15.1625 20.7125C14.9708 20.5208 14.875 20.2833 14.875 20V15C14.875 14.7167 14.7792 14.4792 14.5875 14.2875C14.3958 14.0958 14.1583 14 13.875 14H11.875C11.5917 14 11.3542 14.0958 11.1625 14.2875C10.9708 14.4792 10.875 14.7167 10.875 15V20C10.875 20.2833 10.7792 20.5208 10.5875 20.7125C10.3958 20.9042 10.1583 21 9.875 21H6.875C6.325 21 5.85417 20.8042 5.4625 20.4125C5.07083 20.0208 4.875 19.55 4.875 19Z" fill="#001F29"/>
</g>
</svg>
