<svg width="25" height="24" viewBox="0 0 25 24" fill="none" xmlns="http://www.w3.org/2000/svg">
<g id="Icon">
<path id="Vector" d="M4.125 21C3.575 21 3.10417 20.8042 2.7125 20.4125C2.32083 20.0208 2.125 19.55 2.125 19V5C2.125 4.45 2.32083 3.97917 2.7125 3.5875C3.10417 3.19583 3.575 3 4.125 3H20.125C20.675 3 21.1458 3.19583 21.5375 3.5875C21.9292 3.97917 22.125 4.45 22.125 5V19C22.125 19.55 21.9292 20.0208 21.5375 20.4125C21.1458 20.8042 20.675 21 20.125 21H4.125ZM4.125 19H20.125V5H4.125V19ZM7.125 17H17.125C17.4083 17 17.6458 16.9042 17.8375 16.7125C18.0292 16.5208 18.125 16.2833 18.125 16C18.125 15.7167 18.0292 15.4792 17.8375 15.2875C17.6458 15.0958 17.4083 15 17.125 15H7.125C6.84167 15 6.60417 15.0958 6.4125 15.2875C6.22083 15.4792 6.125 15.7167 6.125 16C6.125 16.2833 6.22083 16.5208 6.4125 16.7125C6.60417 16.9042 6.84167 17 7.125 17ZM7.125 13H9.125C9.40833 13 9.64583 12.9042 9.8375 12.7125C10.0292 12.5208 10.125 12.2833 10.125 12V8C10.125 7.71667 10.0292 7.47917 9.8375 7.2875C9.64583 7.09583 9.40833 7 9.125 7H7.125C6.84167 7 6.60417 7.09583 6.4125 7.2875C6.22083 7.47917 6.125 7.71667 6.125 8V12C6.125 12.2833 6.22083 12.5208 6.4125 12.7125C6.60417 12.9042 6.84167 13 7.125 13ZM13.125 13H17.125C17.4083 13 17.6458 12.9042 17.8375 12.7125C18.0292 12.5208 18.125 12.2833 18.125 12C18.125 11.7167 18.0292 11.4792 17.8375 11.2875C17.6458 11.0958 17.4083 11 17.125 11H13.125C12.8417 11 12.6042 11.0958 12.4125 11.2875C12.2208 11.4792 12.125 11.7167 12.125 12C12.125 12.2833 12.2208 12.5208 12.4125 12.7125C12.6042 12.9042 12.8417 13 13.125 13ZM13.125 9H17.125C17.4083 9 17.6458 8.90417 17.8375 8.7125C18.0292 8.52083 18.125 8.28333 18.125 8C18.125 7.71667 18.0292 7.47917 17.8375 7.2875C17.6458 7.09583 17.4083 7 17.125 7H13.125C12.8417 7 12.6042 7.09583 12.4125 7.2875C12.2208 7.47917 12.125 7.71667 12.125 8C12.125 8.28333 12.2208 8.52083 12.4125 8.7125C12.6042 8.90417 12.8417 9 13.125 9Z" fill="#3F484A"/>
</g>
</svg>
